<?xml version="1.0" encoding="iso-8859-1"?>
<!-- Uploaded to: SVG Repo, www.svgrepo.com, Generator: SVG Repo Mixer Tools -->
<svg fill="#000000" height="800px" width="800px" version="1.1" id="Capa_1" xmlns="http://www.w3.org/2000/svg" xmlns:xlink="http://www.w3.org/1999/xlink" 
	 viewBox="0 0 463.001 463.001" xml:space="preserve">
<g>
	<path d="M220.657,43.354c-12.104,0-21.952,9.848-21.952,21.952c0,12.104,9.848,21.951,21.952,21.951s21.952-9.847,21.952-21.951
		C242.609,53.202,232.761,43.354,220.657,43.354z M220.657,72.258c-3.833,0-6.952-3.118-6.952-6.951
		c0-3.833,3.119-6.952,6.952-6.952s6.952,3.119,6.952,6.952C227.609,69.14,224.49,72.258,220.657,72.258z"/>
	<path d="M162.851,36.129c-4.142,0-7.5,3.358-7.5,7.5v36.129c0,4.143,3.358,7.5,7.5,7.5s7.5-3.357,7.5-7.5V43.629
		C170.351,39.487,166.993,36.129,162.851,36.129z"/>
	<path d="M378.125,172.272c-2.31-5.391-6.581-9.558-12.025-11.735l-43.357-17.342c-8.792-3.514-18.538-0.918-24.517,5.757
		l-41.164-16.466v-1.374c0-8.546-6.953-15.5-15.5-15.5h-20.629v-6.677h43.081c12.104,0,21.952-9.848,21.952-21.952V36.403
		c0-12.104-9.848-21.952-21.952-21.952h-2.591l-1.158-2.317C256.521,4.649,248.998,0,240.629,0h-39.943
		c-8.368,0-15.891,4.649-19.634,12.135l-1.158,2.317h-24.268c-12.104,0-21.952,9.847-21.952,21.952v50.581
		c0,12.104,9.848,21.952,21.952,21.952h50.307v6.677h-28.629h-14.452c-12.104,0-21.952,9.847-21.952,21.952
		c0,12.104,9.848,21.951,21.952,21.951h14.452h28.629v6.678h-28.629c-4.142,0-7.5,3.358-7.5,7.5s3.358,7.5,7.5,7.5h3.79
		L83.534,452.966c-1.399,3.898,0.626,8.193,4.525,9.593c0.837,0.301,1.692,0.443,2.534,0.443c3.076,0,5.96-1.907,7.06-4.968
		l44.907-125.098h63.373V455.5c0,4.142,3.358,7.5,7.5,7.5s7.5-3.358,7.5-7.5V332.935h63.372l44.907,125.098
		c1.099,3.062,3.983,4.968,7.06,4.968c0.841,0,1.696-0.143,2.534-0.443c3.898-1.4,5.924-5.695,4.525-9.593L245.77,181.193h3.791
		c4.142,0,7.5-3.358,7.5-7.5s-3.358-7.5-7.5-7.5h-28.629v-6.678h20.629c7.028,0,12.969-4.705,14.862-11.128l36.244,14.498
		c-0.102,3.166,0.464,6.342,1.749,9.34c2.31,5.391,6.581,9.558,12.025,11.735l43.35,17.339c2.608,1.045,5.352,1.576,8.153,1.576
		c9.028,0,17.029-5.417,20.385-13.803C380.506,183.627,380.434,177.661,378.125,172.272z M220.657,93.936
		c-15.786,0-28.629-12.843-28.629-28.629s12.843-28.629,28.629-28.629s28.629,12.843,28.629,28.629S236.443,93.936,220.657,93.936z
		 M148.673,86.984V36.403c0-3.833,3.119-6.952,6.952-6.952h28.903c2.841,0,5.438-1.605,6.708-4.146l3.231-6.463
		c1.186-2.37,3.568-3.843,6.218-3.843h39.943c2.65,0,5.033,1.473,6.217,3.843l3.232,6.463c1.27,2.541,3.867,4.146,6.708,4.146h7.226
		c3.833,0,6.952,3.119,6.952,6.952v50.581c0,3.833-3.119,6.952-6.952,6.952h-10.475c6.686-7.669,10.749-17.68,10.749-28.629
		c0-24.058-19.572-43.629-43.629-43.629s-43.629,19.571-43.629,43.629c0,10.949,4.063,20.96,10.749,28.629h-32.152
		C151.792,93.936,148.673,90.817,148.673,86.984z M147.944,317.935l49.087-136.742h8.901v136.742H147.944z M278.919,317.935h-57.988
		V181.193h8.901L278.919,317.935z M155.899,137.564c0-3.833,3.119-6.952,6.952-6.952h6.952v13.903h-6.952
		C159.018,144.516,155.899,141.397,155.899,137.564z M241.561,144.516h-56.758v-13.903h56.758c0.276,0,0.5,0.224,0.5,0.5v6.579
		c0,0.008,0,0.016,0,0.024v6.3C242.061,144.292,241.836,144.516,241.561,144.516z M364.402,183.499
		c-1.063,2.658-3.598,4.375-6.458,4.375c-0.881,0-1.747-0.168-2.578-0.501l-43.355-17.341c-1.724-0.689-3.077-2.009-3.808-3.716
		c-0.731-1.706-0.754-3.596-0.065-5.319c1.086-2.715,3.705-4.37,6.465-4.37c0.857,0,1.728,0.159,2.57,0.496l43.355,17.341
		c1.724,0.689,3.077,2.009,3.808,3.716C365.068,179.887,365.091,181.776,364.402,183.499z"/>
</g>
</svg>